<svg id="ICON-COCINA" xmlns="http://www.w3.org/2000/svg" width="111.592" height="111.592" viewBox="0 0 111.592 111.592">
  <path id="Trazado_25" data-name="Trazado 25" d="M65.361,40.815c-.015-.014-1.468-1.489-1.8-9.421-.2-4.77-2.023-7.147-3.765-8.334l-.068.019a2.608,2.608,0,0,1-.738.116H31.133a2.63,2.63,0,0,1-.738-.116l-.068-.02c-1.742,1.187-3.564,3.565-3.766,8.335-.331,7.867-1.762,9.383-1.752,9.383h0a.7.7,0,0,0-.3.721.765.765,0,0,0,.578.564,31.637,31.637,0,0,0,5.223.836,11.218,11.218,0,0,0,2.524,5.353h-.079c-2.732,0-4.873,1.32-4.873,3V66.512A1.546,1.546,0,0,0,29.5,67.976h3.1l.112-1.464.679-8.93A.779.779,0,0,1,34.2,56.9h1V50.347a11.936,11.936,0,0,0,3.589,1.636V56.9H51.334V51.984a11.936,11.936,0,0,0,3.589-1.636V56.9h1a.78.78,0,0,1,.805.681l.68,8.93.111,1.464h3.1a1.546,1.546,0,0,0,1.614-1.464V51.254c0-1.685-2.14-3-4.873-3h-.079A11.218,11.218,0,0,0,59.808,42.9a31.67,31.67,0,0,0,5.224-.836.775.775,0,0,0,.6-.545A.654.654,0,0,0,65.361,40.815Zm-6.987.169a10.1,10.1,0,0,1-10.208,9.965h-6.21a10.1,10.1,0,0,1-10.208-9.965V32.5a21.639,21.639,0,0,0,12.912-5.434.87.87,0,0,1,1.155,0,21.253,21.253,0,0,0,12.559,5.443ZM45.025,45.262a8.453,8.453,0,0,0,2.707-.327.815.815,0,0,1,.729-.419.772.772,0,0,1,.807.732c0,1.286-2.613,1.478-4.172,1.478-1.629,0-4.243-.192-4.243-1.478a.772.772,0,0,1,.807-.732.818.818,0,0,1,.73.419A8.2,8.2,0,0,0,45.025,45.262ZM39.45,37.7a1.823,1.823,0,1,1,2-1.814A1.913,1.913,0,0,1,39.45,37.7Zm9.221-1.814a2.009,2.009,0,1,1,2,1.814A1.914,1.914,0,0,1,48.671,35.883ZM52.279,42.2c0-.846,1.176-1.532,2.627-1.532s2.627.686,2.627,1.532-1.176,1.533-2.627,1.533S52.279,43.043,52.279,42.2Zm-14.438,0c0,.847-1.176,1.533-2.627,1.533s-2.627-.686-2.627-1.533,1.176-1.532,2.627-1.532S37.841,41.35,37.841,42.2ZM31.208,12.784a4.411,4.411,0,0,1-1.341-3.075c0-2.923,3.21-5.294,7.171-5.294a9.462,9.462,0,0,1,1.563.13.805.805,0,0,0,.7-.222,8.466,8.466,0,0,1,11.509,0,.8.8,0,0,0,.7.222,9.462,9.462,0,0,1,1.563-.13c3.961,0,7.171,2.37,7.171,5.294a4.411,4.411,0,0,1-1.341,3.075h0v4.638H50.753V13.546a.811.811,0,0,0-1.614,0v3.876H40.982V13.546a.811.811,0,0,0-1.614,0v3.876H31.205V12.784Zm27.78,6.1a.772.772,0,0,1,.807.732V21a.772.772,0,0,1-.807.732H31.133A.772.772,0,0,1,30.326,21v-1.38a.772.772,0,0,1,.807-.732Zm-.559,51.9H54.208V67.816a.894.894,0,0,0,.266-.537V65.258a2.242,2.242,0,0,0-2.285-2.2H37.932a2.242,2.242,0,0,0-2.285,2.2V67.28a.89.89,0,0,0,.266.537v2.967H31.691a.736.736,0,1,0,0,1.464H58.429a.736.736,0,1,0,0-1.464ZM43.494,64.168h.787a.736.736,0,1,1,0,1.464h-.787a.736.736,0,1,1,0-1.464Zm-4.955,0h2.077a.736.736,0,1,1,0,1.464H38.539a.736.736,0,1,1,0-1.464Zm-1.013,6.617V68.84a2.48,2.48,0,0,0,.574.068c1.74,0,1.74-1.45,3.478-1.45s1.738,1.45,3.476,1.45,1.74-1.45,3.479-1.45,1.74,1.45,3.482,1.45a2.436,2.436,0,0,0,.579-.07v1.946Z" transform="translate(10.723 17.172)" fill="#707070"/>
  <g id="Grupo_45" data-name="Grupo 45">
    <g id="Trazado_24" data-name="Trazado 24" fill="none">
      <path d="M55.8,0A55.8,55.8,0,1,1,0,55.8,55.8,55.8,0,0,1,55.8,0Z" stroke="none"/>
      <path d="M 55.79621887207031 8.999992370605469 C 29.99269866943359 8.999992370605469 8.999992370605469 29.99269866943359 8.999992370605469 55.79621887207031 C 8.999992370605469 81.59973907470703 29.99269866943359 102.5924453735352 55.79621887207031 102.5924453735352 C 81.59973907470703 102.5924453735352 102.5924453735352 81.59973907470703 102.5924453735352 55.79621887207031 C 102.5924453735352 29.99269866943359 81.59973907470703 8.999992370605469 55.79621887207031 8.999992370605469 M 55.79621887207031 -7.62939453125e-06 C 86.61162567138672 -7.62939453125e-06 111.5924453735352 24.98081207275391 111.5924453735352 55.79621887207031 C 111.5924453735352 86.61162567138672 86.61162567138672 111.5924453735352 55.79621887207031 111.5924453735352 C 24.98081207275391 111.5924453735352 -7.62939453125e-06 86.61162567138672 -7.62939453125e-06 55.79621887207031 C -7.62939453125e-06 24.98081207275391 24.98081207275391 -7.62939453125e-06 55.79621887207031 -7.62939453125e-06 Z" stroke="none" fill="#84a59d"/>
    </g>
  </g>
</svg>
