<svg xmlns="http://www.w3.org/2000/svg" width="111" height="112" viewBox="0 0 111 112">
  <g id="ICON-CORRER" transform="translate(0 0.351)">
    <path id="Trazado_21" data-name="Trazado 21" d="M74.134,53.813a5.556,5.556,0,0,0,.708-6.255A2.921,2.921,0,0,0,72.954,45.9L59.5,40.712h0a6.008,6.008,0,0,1-2.951-2.479l-3.423-5.547H53.6a1.18,1.18,0,0,0,0-2.36H51.591l-1.652-2.715h.472a1.18,1.18,0,0,0,0-2.36H48.523l-1.416-2.006h.472a1.18,1.18,0,0,0,0-2.36H45.572L43.92,18.169a.116.116,0,0,0-.118-.118,6.307,6.307,0,0,0-5.665-2.36,4.775,4.775,0,0,0-4.013,2.833,1.162,1.162,0,1,0,2.124.944,2.823,2.823,0,0,1,2.242-1.416,3.874,3.874,0,0,1,3.541,1.416l.826,1.416h-.59a1.18,1.18,0,0,0,0,2.36h2.006l1.416,2.242H45.1a1.18,1.18,0,0,0,0,2.36h2.124l1.652,2.715h-.59a1.18,1.18,0,0,0,0,2.36h2.006l4.249,6.727a9.021,9.021,0,0,0,4.131,3.423h0l13.455,4.957a3.129,3.129,0,0,1,.708.59,2.847,2.847,0,0,1-.118,3.187H51.827a6.74,6.74,0,0,1-3.659-1.18L23.5,32.45,7.8,20.766l-.118-.118h0A1.269,1.269,0,0,1,7.45,19L15,6.721a1.3,1.3,0,0,1,1.77-.354c.472.354,1.888,1.652,5.665,7.554a11.066,11.066,0,0,0,8.026,4.957,1.186,1.186,0,1,0,.236-2.361,8.909,8.909,0,0,1-6.255-3.895C20.079,5.776,18.662,4.714,18.19,4.36a3.607,3.607,0,0,0-5.075.826C11.7,7.547,5.444,17.7,5.444,17.7a3.639,3.639,0,0,0-.472,2.479,3.8,3.8,0,0,0-2.124,1.416L.6,24.9a3.543,3.543,0,0,0,.944,4.839c1.888,1.3,4.6,3.069,7.672,5.193a1.677,1.677,0,0,0,.708.236,1.457,1.457,0,0,0,.944-.472,1.161,1.161,0,0,0-.354-1.652c-3.069-2.124-5.783-3.895-7.672-5.193a1.119,1.119,0,0,1-.236-1.534L4.735,22.89a.97.97,0,0,1,.708-.472,1.124,1.124,0,0,1,.826.236L22.2,34.456h.118L46.634,52.514a8.691,8.691,0,0,0,5.075,1.652H69.885a17.239,17.239,0,0,1-9.324,2.6H49.231a11.665,11.665,0,0,1-6.255-1.77C37.192,51.334,24.327,42.6,15,36.109a1.195,1.195,0,0,0-1.3,2.006C23.147,44.489,36.012,53.34,41.8,57a14.061,14.061,0,0,0,7.436,2.242h11.33C68.233,59.124,72.6,55.583,74.134,53.813Z" transform="translate(16.17 23.224)" fill="#707070" stroke="#707070" stroke-width="1"/>
    <g id="Trazado_85" data-name="Trazado 85" transform="translate(0 -0.351)" fill="none">
      <path d="M55.5,0C86.152,0,111,25.072,111,56s-24.848,56-55.5,56S0,86.928,0,56,24.848,0,55.5,0Z" stroke="none"/>
      <path d="M 55.5 9 C 29.85981750488281 9 9 30.08411407470703 9 56 C 9 81.91588592529297 29.85981750488281 103 55.5 103 C 81.14018249511719 103 102 81.91588592529297 102 56 C 102 30.08411407470703 81.14018249511719 9 55.5 9 M 55.5 0 C 86.15179443359375 0 111 25.07206726074219 111 56 C 111 86.92793273925781 86.15179443359375 112 55.5 112 C 24.84820556640625 112 0 86.92793273925781 0 56 C 0 25.07206726074219 24.84820556640625 0 55.5 0 Z" stroke="none" fill="#f5cac3"/>
    </g>
  </g>
</svg>
