<svg xmlns="http://www.w3.org/2000/svg" width="111" height="111" viewBox="0 0 111 111">
  <g id="ICON-DISENO" transform="translate(0)">
    <path id="Trazado_23" data-name="Trazado 23" d="M17.106,50.236h0l-6,13.2a1.418,1.418,0,0,0,1.3,2.028,1.474,1.474,0,0,0,.6-.128l13.182-5.992a.711.711,0,0,0,.206-.142L37.9,47.683,57.05,65.411a5.445,5.445,0,0,0,3.616,1.418,5.673,5.673,0,0,0,4.092-1.893c3.163-3.163,1.673-6.425.454-7.694L47.484,38.1,59,26.608h0l1.794-1.794a5.742,5.742,0,0,0,1.532-2.794l1.851-1.851a5.586,5.586,0,0,0-7.914-7.885l-1.858,1.851a5.787,5.787,0,0,0-2.794,1.539l-2.3,2.3L38.677,28.608l-4.808-5.2a3.292,3.292,0,0,0-2.383-1.071,3.162,3.162,0,0,0-1.262.22c0-1.6-.709-4.006-3.772-7.091-5.481-5.51-15.076-6.283-15.48-6.318a.709.709,0,0,0-.39,1.312c2.021,1.092,2.056,3.673,2.092,6.666.05,3.29.1,7.013,2.836,9.75s5.148,3.546,6.729,3.546h.121a3.207,3.207,0,0,0-.227,1.276A3.311,3.311,0,0,0,23.2,34.082l5.2,4.808L17.241,50.044A.708.708,0,0,0,17.106,50.236Zm-4.1-39.377c3.092.539,8.843,1.978,12.466,5.6,4.6,4.6,3.212,7.134,3.035,7.424l-4.786,4.794c-.383.213-2.985,1.418-7.2-2.78-2.326-2.333-2.368-5.6-2.418-8.772C14.064,14.766,14.029,12.5,13.007,10.859Zm11.1,19.458,6-6a1.881,1.881,0,0,1,1.34-.553h0a1.87,1.87,0,0,1,1.369.617l4.914,5.226L29.4,37.883l-5.24-4.85a1.894,1.894,0,0,1-.1-2.676ZM50.023,19.269A9.08,9.08,0,0,1,54.37,21.1L23.325,52.108A9.716,9.716,0,0,0,19.2,50.094ZM63.149,13.3a4.163,4.163,0,0,1,0,5.886l-.709.709a5.5,5.5,0,0,0-.652-1.957,8.512,8.512,0,0,0-3.3-3.219,5.543,5.543,0,0,0-1.978-.709l.752-.709A4.163,4.163,0,0,1,63.149,13.3Zm-5.361,2.645a7.22,7.22,0,0,1,2.73,2.73,4.3,4.3,0,0,1-.752,5.155l-1.418,1.418a9.561,9.561,0,0,0-2.29-4.46.685.685,0,0,0-.4-.4,9.7,9.7,0,0,0-4.453-2.29l1.418-1.383a4.319,4.319,0,0,1,5.162-.787Zm.255,48.411L38.9,46.662,46.492,39.1,64.219,58.242c.106.113,2.56,2.737-.418,5.723S58.327,64.645,58.043,64.354Zm-31.7-7.091a9.8,9.8,0,0,0-2.007-4.134L55.37,22.07a8.958,8.958,0,0,1,1.794,4.347Zm-8.176-5.928A7.822,7.822,0,0,1,25.1,58.27l-7.616,3.453a3.325,3.325,0,0,0-.936-1.8,3.756,3.756,0,0,0-1.858-.95Zm-4.077,8.97a2.5,2.5,0,0,1,1.468.631,2.128,2.128,0,0,1,.574,1.418L12.4,64.042Z" transform="translate(16.919 17.399)" fill="#707070" stroke="#707070" stroke-width="1"/>
    <g id="Elipse_8" data-name="Elipse 8" transform="translate(0)" fill="none" stroke="#f7ede2" stroke-width="9">
      <circle cx="55.5" cy="55.5" r="55.5" stroke="none"/>
      <circle cx="55.5" cy="55.5" r="51" fill="none"/>
    </g>
  </g>
</svg>
