<svg xmlns="http://www.w3.org/2000/svg" width="112" height="111" viewBox="0 0 112 111">
  <g id="ICON-LEER" transform="translate(0 0.011)">
    <g id="Elipse_4" data-name="Elipse 4" transform="translate(0 -0.011)" fill="none" stroke="#84a59d" stroke-width="9">
      <ellipse cx="56" cy="55.5" rx="56" ry="55.5" stroke="none"/>
      <ellipse cx="56" cy="55.5" rx="51.5" ry="51" fill="none"/>
    </g>
    <g id="Grupo_71" data-name="Grupo 71" transform="translate(-147.779 -33.691)">
      <path id="Trazado_86" data-name="Trazado 86" d="M62.826,11.1h-1.4V5.312A.632.632,0,0,0,60.8,4.68H20.83a4.016,4.016,0,0,0-4.01,3.991v49.5a4.737,4.737,0,0,0,4.736,4.736h41.27a.632.632,0,0,0,.632-.632V11.759a.631.631,0,0,0-.6-.662Zm-2.659.632v41.68H24.512V5.943H44.853V31.715a.631.631,0,0,0,1.036.486l4.174-3.454L54.238,32.2a.632.632,0,0,0,1.036-.486V5.943h4.894ZM46.116,5.943H54.01V30.37l-3.543-2.93a.631.631,0,0,0-.808,0l-3.543,2.93ZM18.083,54.962V8.671A2.747,2.747,0,0,1,20.83,5.924h2.419v47.49H21.563a4.581,4.581,0,0,0-.493,0H20.9l-.309.051-.208.051-.253.069-.227.082-.208.082-.246.12-.164.082-.265.164-.114.076-.291.215-.063.051c-.107.088-.208.183-.3.278h0ZM62.195,61.65H21.563a3.473,3.473,0,0,1,0-6.947H60.8a.632.632,0,0,0,.632-.632V12.391h.764Z" transform="translate(164 54)" fill="#707070" stroke="#707070" stroke-width="0.4"/>
      <path id="Trazado_87" data-name="Trazado 87" d="M62.53,88.3h-38.6a.632.632,0,0,0,0,1.263h38.6a.632.632,0,0,0,0-1.263Z" transform="translate(161.612 23.188)" fill="#707070" stroke="#707070" stroke-width="0.4"/>
    </g>
  </g>
</svg>
