<svg id="ICON-NATURALEZA" xmlns="http://www.w3.org/2000/svg" width="111.592" height="111.592" viewBox="0 0 111.592 111.592">
  <g id="Trazado_24" data-name="Trazado 24" transform="translate(0)" fill="none">
    <path d="M55.8,0A55.8,55.8,0,1,1,0,55.8,55.8,55.8,0,0,1,55.8,0Z" stroke="none"/>
    <path d="M 55.79621887207031 8.999992370605469 C 29.99269866943359 8.999992370605469 8.999992370605469 29.99269866943359 8.999992370605469 55.79621887207031 C 8.999992370605469 81.59973907470703 29.99269866943359 102.5924453735352 55.79621887207031 102.5924453735352 C 81.59973907470703 102.5924453735352 102.5924453735352 81.59973907470703 102.5924453735352 55.79621887207031 C 102.5924453735352 29.99269866943359 81.59973907470703 8.999992370605469 55.79621887207031 8.999992370605469 M 55.79621887207031 -7.62939453125e-06 C 86.61162567138672 -7.62939453125e-06 111.5924453735352 24.98081207275391 111.5924453735352 55.79621887207031 C 111.5924453735352 86.61162567138672 86.61162567138672 111.5924453735352 55.79621887207031 111.5924453735352 C 24.98081207275391 111.5924453735352 -7.62939453125e-06 86.61162567138672 -7.62939453125e-06 55.79621887207031 C -7.62939453125e-06 24.98081207275391 24.98081207275391 -7.62939453125e-06 55.79621887207031 -7.62939453125e-06 Z" stroke="none" fill="#f6bd60"/>
  </g>
  <path id="Trazado_88" data-name="Trazado 88" d="M69.3,37.893c-5.977-9.875-18.971-24.688-21.31-27.114a2.719,2.719,0,0,0-3.811,0c-2.339,2.425-15.333,16.632-21.4,26.507a21.564,21.564,0,0,0-.693,22C25.2,65.007,33.52,70.2,38.8,71.07a8.4,8.4,0,0,0,1.473.087,10.9,10.9,0,0,0,4.071-.866v7.276a1.732,1.732,0,1,0,3.465,0V70.291a11.3,11.3,0,0,0,4.071.866,9.545,9.545,0,0,0,1.559-.173c5.371-1.3,13.427-6.757,16.459-12.474A20.841,20.841,0,0,0,69.3,37.893ZM66.87,56.864c-2.425,4.678-9.615,9.615-14.12,10.741-1.126.26-2.6-.26-3.9-.693-.346-.087-.606-.26-.953-.346v-6.41l8.836-5.631A1.754,1.754,0,0,0,54.83,51.58L47.9,56V44.39l6.15-3.9a1.754,1.754,0,1,0-1.906-2.945l-4.331,2.685V34.6a1.732,1.732,0,1,0-3.465,0v5.717l-4.331-2.685a1.754,1.754,0,1,0-1.906,2.945l6.15,3.9V56.084l-6.93-4.418a1.754,1.754,0,1,0-1.906,2.945l8.836,5.631v6.41l-.78.26a9.2,9.2,0,0,1-3.292.78,3.553,3.553,0,0,1-.953-.087c-4.331-.693-11.608-5.284-14.206-9.962a18.082,18.082,0,0,1,.606-18.451c5.544-8.836,16.892-21.57,20.357-25.208C49.372,17.71,60.893,31.05,66.177,39.8A17.158,17.158,0,0,1,66.87,56.864Z" transform="translate(9.927 11.146)" fill="#707070"/>
</svg>
