<svg xmlns="http://www.w3.org/2000/svg" width="112" height="111" viewBox="0 0 112 111">
  <g id="ukulele" transform="translate(14.082 12.48)">
    <path id="Trazado_62" data-name="Trazado 62" d="M58.226,16.394l.359.361a1.032,1.032,0,0,1,0,1.459L47.048,29.754a1.033,1.033,0,0,1-1.188.2,10.611,10.611,0,0,0-12.232,1.514,9.3,9.3,0,0,0-2.191,3.472A4.865,4.865,0,0,1,26.5,38.26q-.755-.065-1.494-.066a13.977,13.977,0,0,0-10.059,4.025C9.024,48.144,9.717,58.482,16.5,65.264s17.123,7.472,23.044,1.547A14.212,14.212,0,0,0,43.5,55.258a4.867,4.867,0,0,1,3.324-4.937A9.3,9.3,0,0,0,50.3,48.132a10.612,10.612,0,0,0,1.279-12.7,1.032,1.032,0,0,1,.175-1.223L63.167,22.8a1.032,1.032,0,0,1,1.459,0l.361.361,5.777-5.766L64,10.63ZM30.3,59.939a1.032,1.032,0,0,1-1.459,0L21.811,52.91a1.032,1.032,0,1,1,1.434-1.483l.025.025L30.3,58.48A1.032,1.032,0,0,1,30.3,59.939Zm8.459-7.646a6.577,6.577,0,0,1-9.3-9.3,6.735,6.735,0,0,1,9.3,0A6.583,6.583,0,0,1,38.763,52.293Z" transform="translate(3.067 5.243)" fill="rgba(0,0,0,0)" stroke="#707070" stroke-width="1"/>
    <path id="Trazado_63" data-name="Trazado 63" d="M24.489,26.384a4.512,4.512,0,0,0-3.192,7.7,4.624,4.624,0,0,0,6.383,0,4.512,4.512,0,0,0-3.192-7.7Z" transform="translate(12.691 21.991)" fill="rgba(0,0,0,0)" stroke="#707070" stroke-width="1"/>
    <path id="Trazado_64" data-name="Trazado 64" d="M20.9,27.277a6.577,6.577,0,1,0,9.3,0l0,0A6.735,6.735,0,0,0,20.9,27.277Zm7.84,7.84a4.624,4.624,0,0,1-6.383,0,4.514,4.514,0,1,1,6.383,0Z" transform="translate(11.628 20.959)" fill="#707070" stroke="#707070" stroke-width="1"/>
    <path id="Trazado_65" data-name="Trazado 65" d="M74.006,17.943,65.789,9.723a1.032,1.032,0,0,0-1.459,0L57.11,16.944a1.032,1.032,0,0,0,0,1.459l.361.361-10.3,10.3a12.565,12.565,0,0,0-13.93,2.218,11.3,11.3,0,0,0-2.682,4.238,2.754,2.754,0,0,1-2.812,1.962,16.251,16.251,0,0,0-13.2,4.555C7.815,48.767,8.509,60.415,16.092,68a20.546,20.546,0,0,0,14.4,6.177A15.885,15.885,0,0,0,46.725,58.645a16.051,16.051,0,0,0-.116-2.292h0a2.771,2.771,0,0,1,1.962-2.808,11.379,11.379,0,0,0,4.24-2.682A12.554,12.554,0,0,0,54.8,36.421L64.964,26.267l.359.361a1.064,1.064,0,0,0,1.459,0L74,19.407a1.03,1.03,0,0,0,.01-1.459Zm-7.953,6.494-.361-.361a1.032,1.032,0,0,0-1.459,0L52.819,35.491a1.031,1.031,0,0,0-.175,1.223,10.612,10.612,0,0,1-1.279,12.7A9.3,9.3,0,0,1,47.89,51.6a4.867,4.867,0,0,0-3.324,4.937,14.212,14.212,0,0,1-3.959,11.553c-5.927,5.925-16.267,5.23-23.044-1.547S10.091,49.421,16.016,43.5a13.977,13.977,0,0,1,10.059-4.025q.74,0,1.494.066A4.865,4.865,0,0,0,32.5,36.217a9.3,9.3,0,0,1,2.191-3.472,10.611,10.611,0,0,1,12.232-1.514,1.033,1.033,0,0,0,1.188-.2L59.652,19.5a1.032,1.032,0,0,0,0-1.459l-.359-.361,5.777-5.766,6.761,6.761Z" transform="translate(2 3.959)" fill="#707070" stroke="#707070" stroke-width="1"/>
    <path id="Trazado_66" data-name="Trazado 66" d="M35.389,11.615a1.03,1.03,0,0,0,.73-.3l1.032-1.032a1.032,1.032,0,1,0-1.459-1.461L34.661,9.853a1.032,1.032,0,0,0,.728,1.76Z" transform="translate(27.983 3)" fill="#707070" stroke="#707070" stroke-width="1"/>
    <path id="Trazado_67" data-name="Trazado 67" d="M33.547,13.45a1.038,1.038,0,0,0,.728-.3l1.032-1.032a1.032,1.032,0,0,0-1.459-1.459l-1.032,1.032a1.032,1.032,0,0,0,.73,1.76Z" transform="translate(26.023 4.967)" fill="#707070" stroke="#707070" stroke-width="1"/>
    <path id="Trazado_68" data-name="Trazado 68" d="M41.718,14.849l-1.032,1.032a1.032,1.032,0,0,0,.73,1.76,1.017,1.017,0,0,0,.728-.3l1.032-1.032a1.032,1.032,0,0,0-1.459-1.459Z" transform="translate(34.389 9.421)" fill="#707070" stroke="#707070" stroke-width="1"/>
    <path id="Trazado_69" data-name="Trazado 69" d="M39.87,16.7l-1.032,1.032A1.032,1.032,0,0,0,40.3,19.191l1.032-1.032a1.032,1.032,0,1,0-1.434-1.483Z" transform="translate(32.435 11.363)" fill="#707070" stroke="#707070" stroke-width="1"/>
    <path id="Trazado_70" data-name="Trazado 70" d="M17.824,30.579a1.032,1.032,0,0,0-1.483,1.434l.025.025,7.029,7.029a1.032,1.032,0,0,0,1.459-1.459Z" transform="translate(8.519 26.116)" fill="#707070" stroke="#707070" stroke-width="1"/>
    <g id="Elipse_10" data-name="Elipse 10" transform="translate(-14.082 -12.48)" fill="none" stroke="#f6bd60" stroke-width="9">
      <ellipse cx="56" cy="55.5" rx="56" ry="55.5" stroke="none"/>
      <ellipse cx="56" cy="55.5" rx="51.5" ry="51" fill="none"/>
    </g>
  </g>
</svg>
