<svg id="behance" xmlns="http://www.w3.org/2000/svg" xmlns:xlink="http://www.w3.org/1999/xlink" width="56.004" height="55.382" viewBox="0 0 56.004 55.382">
  <defs>
    <linearGradient id="linear-gradient" x1="0.162" y1="0.132" x2="0.931" y2="1" gradientUnits="objectBoundingBox">
      <stop offset="0" stop-color="#2680eb"/>
      <stop offset="1" stop-color="#134076"/>
    </linearGradient>
  </defs>
  <path id="Trazado_38" data-name="Trazado 38" d="M6.332-3.11c4.044-4.233,12.257-3.283,19.116.9s19.094,0,19.094,0a7.4,7.4,0,0,1,7.322,7.467V23.924a7.4,7.4,0,0,1-7.322,7.467H7.322A7.4,7.4,0,0,1,0,23.924V5.256C0,1.132,2.287,1.123,6.332-3.11Z" transform="translate(2.273 21.502)" fill="url(#linear-gradient)"/>
  <g id="Grupo_61" data-name="Grupo 61">
    <g id="Rect치ngulo_79" data-name="Rect치ngulo 79" fill="none" stroke="#000" stroke-width="3">
      <rect width="56.004" height="55.382" rx="13" stroke="none"/>
      <rect x="1.5" y="1.5" width="53.004" height="52.382" rx="11.5" fill="none"/>
    </g>
  </g>
  <path id="Trazado_83" data-name="Trazado 83" d="M11.208,17.382a35.9,35.9,0,0,1,7.322-.7c4.007,0,6.585.749,8.519,2.446a7.287,7.287,0,0,1,2.579,5.942,7.929,7.929,0,0,1-5.25,7.39v.1A8.5,8.5,0,0,1,30.78,41a9.448,9.448,0,0,1-2.625,6.74c-2.165,2.147-5.664,3.145-10.73,3.145a43.371,43.371,0,0,1-6.216-.4Zm4.006,13.78h3.638c4.237,0,6.724-2.4,6.724-5.642,0-3.945-2.763-5.492-6.816-5.492a15.9,15.9,0,0,0-3.546.3Zm0,16.127a19.771,19.771,0,0,0,3.362.2c4.144,0,7.966-1.648,7.966-6.541,0-4.593-3.638-6.49-8.013-6.49H15.214Z" transform="translate(-3.376 -5.303)"/>
  <path id="Trazado_84" data-name="Trazado 84" d="M52.667,43.731c.092,5.942,3.592,8.388,7.645,8.388a13.677,13.677,0,0,0,6.171-1.248l.691,3.146a16.852,16.852,0,0,1-7.414,1.5c-6.862,0-10.96-4.893-10.96-12.183S52.759,30.3,59.252,30.3c7.276,0,9.21,6.94,9.21,11.384a17.939,17.939,0,0,1-.138,2.047Zm11.882-3.145c.045-2.8-1.059-7.14-5.618-7.14-4.1,0-5.895,4.095-6.217,7.14Z" transform="translate(-18.197 -9.733)"/>
  <rect id="Rect치ngulo_250" data-name="Rect치ngulo 250" width="17.323" height="2.472" transform="translate(32.746 15.961)"/>
</svg>
