<svg xmlns="http://www.w3.org/2000/svg" xmlns:xlink="http://www.w3.org/1999/xlink" width="90" height="89" viewBox="0 0 90 89">
  <defs>
    <linearGradient id="linear-gradient" x1="0.162" y1="0.132" x2="0.931" y2="1" gradientUnits="objectBoundingBox">
      <stop offset="0" stop-color="#eb9026"/>
      <stop offset="1" stop-color="#a04e1a"/>
      <stop offset="1" stop-color="#5f1376"/>
    </linearGradient>
  </defs>
  <g id="github" transform="translate(-1798.633 -120)">
    <path id="Trazado_38" data-name="Trazado 38" d="M10.175-1.444c6.5-6.8,19.7-5.277,30.721,1.444S71.581,0,71.581,0A11.885,11.885,0,0,1,83.347,12V42A11.885,11.885,0,0,1,71.581,54H11.767A11.885,11.885,0,0,1,0,42V12C0,5.373,3.676,5.358,10.175-1.444Z" transform="translate(1802.286 151)" fill="url(#linear-gradient)"/>
    <g id="Grupo_61" data-name="Grupo 61" transform="translate(398.05 -338.18)">
      <g id="Rectángulo_79" data-name="Rectángulo 79" transform="translate(1400.583 458.18)" fill="none" stroke="#000" stroke-width="5">
        <rect width="90" height="89" rx="13" stroke="none"/>
        <rect x="2.5" y="2.5" width="85" height="84" rx="10.5" fill="none"/>
      </g>
    </g>
    <g id="Grupo_60" data-name="Grupo 60" transform="translate(1639.938 119.225)">
      <g id="Grupo_51" data-name="Grupo 51" transform="translate(194.106 37.933)">
        <g id="Grupo_50" data-name="Grupo 50" transform="translate(0 0)">
          <path id="Trazado_33" data-name="Trazado 33" d="M289.313,333.869a9.309,9.309,0,0,1-.1,1.689c.024-.163.042-.32.066-.482a14.282,14.282,0,0,1-.965,3.516l.181-.434a13.876,13.876,0,0,1-1.073,2.056c-.223.35-.464.681-.706,1.013.35-.482.084-.109,0-.006l-.181.217c-.157.181-.314.362-.476.537-.332.356-.687.694-1.049,1.019-.175.151-.35.3-.525.44-.06.048-.374.3-.115.1s-.084.06-.157.115a21.879,21.879,0,0,1-2.243,1.447,26.816,26.816,0,0,1-2.714,1.321l.434-.181a89.906,89.906,0,0,1-8.992,2.84,17.1,17.1,0,0,0-1.882.688,10.076,10.076,0,0,0-2.473,1.562,9.924,9.924,0,0,0-2.647,3.48,9.07,9.07,0,0,0-.808,2.322,1.992,1.992,0,0,0,.181,1.393,1.807,1.807,0,0,0,2.473.651,1.753,1.753,0,0,0,.832-1.079,7.049,7.049,0,0,1,.513-1.634l-.181.434a10.11,10.11,0,0,1,.579-1.14q.2-.326.416-.633c.036-.054.078-.109.121-.163.157-.211-.271.338-.139.181.09-.109.175-.217.265-.32a7.737,7.737,0,0,1,.579-.6c.109-.1.223-.205.344-.3.048-.042.1-.078.151-.121.145-.121-.41.3-.115.09a9.154,9.154,0,0,1,1.737-.989l-.434.181a43.163,43.163,0,0,1,5.078-1.52,43.958,43.958,0,0,0,7.122-2.605,20.285,20.285,0,0,0,6.694-4.939,16.18,16.18,0,0,0,3.377-6.459,15.871,15.871,0,0,0,.44-2.762,7.652,7.652,0,0,0,.024-.911,1.842,1.842,0,0,0-1.809-1.809,1.815,1.815,0,0,0-1.821,1.8Z" transform="translate(-262.841 -332.07)"/>
        </g>
      </g>
      <g id="Grupo_53" data-name="Grupo 53" transform="translate(194.063 27.79)">
        <g id="Grupo_52" data-name="Grupo 52" transform="translate(0 0)">
          <path id="Trazado_34" data-name="Trazado 34" d="M265.751,204.053V170.4c0-1.55.024-3.094,0-4.644v-.066a1.809,1.809,0,0,0-3.618,0v33.657c0,1.55-.024,3.094,0,4.644v.066a1.809,1.809,0,0,0,3.618,0Z" transform="translate(-262.122 -163.876)"/>
        </g>
      </g>
      <g id="Grupo_55" data-name="Grupo 55" transform="translate(216.205 29.188)">
        <g id="Grupo_54" data-name="Grupo 54" transform="translate(0 0)">
          <path id="Trazado_35" data-name="Trazado 35" d="M638.034,193.234a4.69,4.69,0,0,1-.036.585c.024-.163.042-.32.066-.482a4.618,4.618,0,0,1-.3,1.1l.181-.434a4.089,4.089,0,0,1-.374.7,1.2,1.2,0,0,1-.133.193c-.006,0,.3-.368.139-.181-.1.109-.187.217-.289.32s-.193.181-.289.265c-.115.1-.289.151.151-.115-.054.036-.109.078-.163.115a4.31,4.31,0,0,1-.736.392l.434-.181a4.618,4.618,0,0,1-1.1.3c.163-.024.32-.042.482-.066a4.746,4.746,0,0,1-1.17,0c.163.024.32.042.482.066a4.618,4.618,0,0,1-1.1-.3l.434.181a4.086,4.086,0,0,1-.7-.374,1.2,1.2,0,0,1-.193-.133c0-.006.368.3.181.139-.109-.1-.217-.187-.32-.289s-.181-.193-.265-.289c-.1-.115-.151-.289.115.151-.036-.054-.078-.109-.115-.163a4.3,4.3,0,0,1-.392-.736l.181.434a4.621,4.621,0,0,1-.3-1.1c.024.163.042.32.066.482a4.749,4.749,0,0,1,0-1.17c-.024.163-.042.32-.066.482a4.621,4.621,0,0,1,.3-1.1l-.181.434a4.081,4.081,0,0,1,.374-.7,1.2,1.2,0,0,1,.133-.193c.006,0-.3.368-.139.181.1-.109.187-.217.289-.32s.193-.181.289-.265c.115-.1.289-.151-.151.115.054-.036.109-.078.163-.115a4.3,4.3,0,0,1,.736-.392l-.434.181a4.618,4.618,0,0,1,1.1-.3c-.163.024-.32.042-.482.066a4.746,4.746,0,0,1,1.17,0c-.163-.024-.32-.042-.482-.066a4.618,4.618,0,0,1,1.1.3l-.434-.181a4.087,4.087,0,0,1,.7.374,1.2,1.2,0,0,1,.193.133c0,.006-.368-.3-.181-.139.109.1.217.187.32.289s.181.193.265.289c.1.115.151.289-.115-.151.036.054.078.109.115.163a4.308,4.308,0,0,1,.392.736l-.181-.434a4.618,4.618,0,0,1,.3,1.1c-.024-.163-.042-.32-.066-.482a4.69,4.69,0,0,1,.036.585,1.809,1.809,0,1,0,3.618,0,6.122,6.122,0,0,0-1.092-3.492,6.506,6.506,0,0,0-3.076-2.34,6.15,6.15,0,0,0-6.67,1.791,6.52,6.52,0,0,0-1.5,3.667,6.045,6.045,0,0,0,.856,3.54,6.121,6.121,0,0,0,2.6,2.382,6.483,6.483,0,0,0,4.016.488,6.228,6.228,0,0,0,4.867-6.031,1.809,1.809,0,0,0-3.618-.006Z" transform="translate(-629.295 -187.057)"/>
        </g>
      </g>
      <g id="Grupo_57" data-name="Grupo 57" transform="translate(189.695 19.057)">
        <g id="Grupo_56" data-name="Grupo 56" transform="translate(0 0)">
          <path id="Trazado_36" data-name="Trazado 36" d="M198.434,25.235a4.687,4.687,0,0,1-.036.585c.024-.163.042-.32.066-.482a4.618,4.618,0,0,1-.3,1.1l.181-.434a4.087,4.087,0,0,1-.374.7,1.2,1.2,0,0,1-.133.193c-.006,0,.3-.368.139-.181-.1.109-.187.217-.289.32s-.193.181-.289.265c-.115.1-.289.151.151-.115-.054.036-.109.078-.163.115a4.306,4.306,0,0,1-.736.392l.434-.181a4.618,4.618,0,0,1-1.1.3c.163-.024.32-.042.482-.066a4.746,4.746,0,0,1-1.17,0c.163.024.32.042.482.066a4.618,4.618,0,0,1-1.1-.3l.434.181a4.086,4.086,0,0,1-.7-.374,1.2,1.2,0,0,1-.193-.133c0-.006.368.3.181.139-.109-.1-.217-.187-.32-.289s-.181-.193-.265-.289c-.1-.115-.151-.289.115.151-.036-.054-.078-.109-.115-.163a4.307,4.307,0,0,1-.392-.736l.181.434a4.618,4.618,0,0,1-.3-1.1c.024.163.042.32.066.482a4.746,4.746,0,0,1,0-1.17c-.024.163-.042.32-.066.482a4.618,4.618,0,0,1,.3-1.1l-.181.434a4.086,4.086,0,0,1,.374-.7,1.2,1.2,0,0,1,.133-.193c.006,0-.3.368-.139.181.1-.109.187-.217.289-.32s.193-.181.289-.265c.115-.1.289-.151-.151.115.054-.036.109-.078.163-.115a4.306,4.306,0,0,1,.736-.392l-.434.181a4.618,4.618,0,0,1,1.1-.3c-.163.024-.32.042-.482.066a4.747,4.747,0,0,1,1.17,0c-.163-.024-.32-.042-.482-.066a4.618,4.618,0,0,1,1.1.3l-.434-.181a4.086,4.086,0,0,1,.7.374,1.2,1.2,0,0,1,.193.133c0,.006-.368-.3-.181-.139.109.1.217.187.32.289s.181.193.265.289c.1.115.151.289-.115-.151.036.054.078.109.115.163a4.306,4.306,0,0,1,.392.736l-.181-.434a4.618,4.618,0,0,1,.3,1.1c-.024-.163-.042-.32-.066-.482a4.687,4.687,0,0,1,.036.585,1.809,1.809,0,1,0,3.618,0,6.122,6.122,0,0,0-1.092-3.492,6.506,6.506,0,0,0-3.076-2.34,6.15,6.15,0,0,0-6.67,1.791,6.52,6.52,0,0,0-1.5,3.667,6.044,6.044,0,0,0,.856,3.54,6.12,6.12,0,0,0,2.6,2.382,6.483,6.483,0,0,0,4.016.488,6.228,6.228,0,0,0,4.867-6.031,1.809,1.809,0,0,0-3.618-.006Z" transform="translate(-189.695 -19.057)"/>
        </g>
      </g>
      <g id="Grupo_59" data-name="Grupo 59" transform="translate(189.713 66.155)">
        <g id="Grupo_58" data-name="Grupo 58" transform="translate(0 0)">
          <path id="Trazado_37" data-name="Trazado 37" d="M198.734,806.234a4.688,4.688,0,0,1-.036.585c.024-.163.042-.32.066-.482a4.619,4.619,0,0,1-.3,1.1l.181-.434a4.086,4.086,0,0,1-.374.7,1.2,1.2,0,0,1-.133.193c-.006,0,.3-.368.139-.181-.1.109-.187.217-.289.32s-.193.181-.289.265c-.115.1-.289.151.151-.115-.054.036-.109.078-.163.115a4.3,4.3,0,0,1-.736.392l.434-.181a4.618,4.618,0,0,1-1.1.3c.163-.024.32-.042.482-.066a4.743,4.743,0,0,1-1.17,0c.163.024.32.042.482.066a4.618,4.618,0,0,1-1.1-.3l.434.181a4.085,4.085,0,0,1-.7-.374,1.2,1.2,0,0,1-.193-.133c0-.006.368.3.181.139-.109-.1-.217-.187-.32-.289s-.181-.193-.265-.289c-.1-.115-.151-.289.115.151-.036-.054-.078-.109-.115-.163a4.3,4.3,0,0,1-.392-.736l.181.434a4.618,4.618,0,0,1-.3-1.1c.024.163.042.32.066.482a4.746,4.746,0,0,1,0-1.17c-.024.163-.042.32-.066.482a4.617,4.617,0,0,1,.3-1.1l-.181.434a4.084,4.084,0,0,1,.374-.7,1.207,1.207,0,0,1,.133-.193c.006,0-.3.368-.139.181.1-.109.187-.217.289-.32s.193-.181.289-.265c.115-.1.289-.151-.151.115.054-.036.109-.078.163-.115a4.313,4.313,0,0,1,.736-.392l-.434.181a4.618,4.618,0,0,1,1.1-.3c-.163.024-.32.042-.482.066a4.743,4.743,0,0,1,1.17,0c-.163-.024-.32-.042-.482-.066a4.618,4.618,0,0,1,1.1.3l-.434-.181a4.089,4.089,0,0,1,.7.374,1.2,1.2,0,0,1,.193.133c0,.006-.368-.3-.181-.139.109.1.217.187.32.289s.181.193.265.289c.1.115.151.289-.115-.151.036.054.078.109.115.163a4.309,4.309,0,0,1,.392.736l-.181-.434a4.619,4.619,0,0,1,.3,1.1c-.024-.163-.042-.32-.066-.482a4.76,4.76,0,0,1,.036.585,1.809,1.809,0,1,0,3.618,0,6.122,6.122,0,0,0-1.092-3.492,6.506,6.506,0,0,0-3.076-2.34,6.15,6.15,0,0,0-6.67,1.791,6.52,6.52,0,0,0-1.5,3.667,6.044,6.044,0,0,0,.856,3.54,6.121,6.121,0,0,0,2.6,2.382,6.483,6.483,0,0,0,4.016.488,6.228,6.228,0,0,0,4.867-6.031,1.809,1.809,0,0,0-3.618-.006Z" transform="translate(-189.995 -800.057)"/>
        </g>
      </g>
    </g>
  </g>
</svg>
