<svg id="github" xmlns="http://www.w3.org/2000/svg" xmlns:xlink="http://www.w3.org/1999/xlink" width="56.004" height="55.382" viewBox="0 0 56.004 55.382">
  <defs>
    <linearGradient id="linear-gradient" x1="0.162" y1="0.132" x2="0.931" y2="1" gradientUnits="objectBoundingBox">
      <stop offset="0" stop-color="#eb9026"/>
      <stop offset="1" stop-color="#a04e1a"/>
      <stop offset="1" stop-color="#5f1376"/>
    </linearGradient>
  </defs>
  <path id="Trazado_38" data-name="Trazado 38" d="M6.332-3.11c4.044-4.233,12.257-3.283,19.116.9s19.094,0,19.094,0a7.4,7.4,0,0,1,7.322,7.467V23.924a7.4,7.4,0,0,1-7.322,7.467H7.322A7.4,7.4,0,0,1,0,23.924V5.256C0,1.132,2.287,1.123,6.332-3.11Z" transform="translate(2.273 21.502)" fill="url(#linear-gradient)"/>
  <g id="Grupo_61" data-name="Grupo 61">
    <g id="Rectángulo_79" data-name="Rectángulo 79" transform="translate(0)" fill="none" stroke="#000" stroke-width="3">
      <rect width="56.004" height="55.382" rx="13" stroke="none"/>
      <rect x="1.5" y="1.5" width="53.004" height="52.382" rx="11.5" fill="none"/>
    </g>
  </g>
  <g id="Grupo_60" data-name="Grupo 60" transform="translate(19.29 11.376)">
    <g id="Grupo_51" data-name="Grupo 51" transform="translate(2.745 11.746)">
      <g id="Grupo_50" data-name="Grupo 50" transform="translate(0 0)">
        <path id="Trazado_33" data-name="Trazado 33" d="M279.314,333.189a5.793,5.793,0,0,1-.064,1.051c.015-.1.026-.2.041-.3a8.887,8.887,0,0,1-.6,2.188l.113-.27a8.636,8.636,0,0,1-.668,1.28c-.139.218-.289.424-.439.63.218-.3.053-.068,0,0l-.113.135c-.1.113-.2.225-.3.334-.206.221-.428.432-.653.634-.109.094-.218.184-.326.274-.038.03-.233.184-.071.06s-.053.038-.1.071a13.614,13.614,0,0,1-1.4.9,16.694,16.694,0,0,1-1.689.822l.27-.113a55.948,55.948,0,0,1-5.6,1.767,10.638,10.638,0,0,0-1.171.428,6.271,6.271,0,0,0-1.539.972,6.175,6.175,0,0,0-1.647,2.165,5.643,5.643,0,0,0-.5,1.445,1.24,1.24,0,0,0,.113.867,1.124,1.124,0,0,0,1.539.405,1.091,1.091,0,0,0,.518-.672,4.385,4.385,0,0,1,.319-1.017l-.113.27a6.289,6.289,0,0,1,.36-.709q.124-.2.259-.394c.023-.034.049-.068.075-.1.1-.131-.169.21-.086.113.056-.068.109-.135.165-.2a4.819,4.819,0,0,1,.36-.372c.068-.064.139-.128.214-.188.03-.026.064-.049.094-.075.09-.075-.255.188-.071.056a5.7,5.7,0,0,1,1.081-.615l-.27.113a26.86,26.86,0,0,1,3.16-.946,27.356,27.356,0,0,0,4.432-1.621,12.623,12.623,0,0,0,4.165-3.073,10.068,10.068,0,0,0,2.1-4.019,9.877,9.877,0,0,0,.274-1.719,4.762,4.762,0,0,0,.015-.567,1.147,1.147,0,0,0-1.126-1.126,1.129,1.129,0,0,0-1.133,1.118Z" transform="translate(-262.841 -332.07)"/>
      </g>
    </g>
    <g id="Grupo_53" data-name="Grupo 53" transform="translate(2.718 5.435)">
      <g id="Grupo_52" data-name="Grupo 52" transform="translate(0 0)">
        <path id="Trazado_34" data-name="Trazado 34" d="M264.38,188.877V167.934c0-.964.015-1.925,0-2.89V165a1.126,1.126,0,1,0-2.252,0v20.943c0,.964-.015,1.925,0,2.89v.041a1.126,1.126,0,1,0,2.252,0Z" transform="translate(-262.122 -163.876)"/>
      </g>
    </g>
    <g id="Grupo_55" data-name="Grupo 55" transform="translate(16.497 6.304)">
      <g id="Grupo_54" data-name="Grupo 54" transform="translate(0 0)">
        <path id="Trazado_35" data-name="Trazado 35" d="M634.733,190.9a2.916,2.916,0,0,1-.023.364c.015-.1.026-.2.041-.3a2.874,2.874,0,0,1-.184.683l.113-.27a2.54,2.54,0,0,1-.233.435.742.742,0,0,1-.083.12s.188-.229.086-.113c-.06.068-.116.135-.18.2s-.12.113-.18.165-.18.094.094-.071c-.034.023-.068.049-.1.071a2.682,2.682,0,0,1-.458.244l.27-.113a2.873,2.873,0,0,1-.683.184c.1-.015.2-.026.3-.041a2.954,2.954,0,0,1-.728,0c.1.015.2.026.3.041a2.874,2.874,0,0,1-.683-.184l.27.113a2.541,2.541,0,0,1-.435-.233.749.749,0,0,1-.12-.083s.229.188.113.086c-.068-.06-.135-.116-.2-.18s-.113-.12-.165-.18-.094-.18.071.094c-.023-.034-.049-.068-.071-.1a2.674,2.674,0,0,1-.244-.458l.113.27a2.877,2.877,0,0,1-.184-.683c.015.1.026.2.041.3a2.959,2.959,0,0,1,0-.728c-.015.1-.026.2-.041.3a2.877,2.877,0,0,1,.184-.683l-.113.27a2.535,2.535,0,0,1,.233-.435.746.746,0,0,1,.083-.12s-.188.229-.086.113c.06-.068.116-.135.18-.2s.12-.113.18-.165.18-.094-.094.071c.034-.023.068-.049.1-.071a2.681,2.681,0,0,1,.458-.244l-.27.113a2.874,2.874,0,0,1,.683-.184c-.1.015-.2.026-.3.041a2.952,2.952,0,0,1,.728,0c-.1-.015-.2-.026-.3-.041a2.873,2.873,0,0,1,.683.184l-.27-.113a2.545,2.545,0,0,1,.435.233.746.746,0,0,1,.12.083s-.229-.188-.113-.086c.068.06.135.116.2.18s.113.12.165.18.094.18-.071-.094c.023.034.049.068.071.1a2.679,2.679,0,0,1,.244.458l-.113-.27a2.874,2.874,0,0,1,.184.683c-.015-.1-.026-.2-.041-.3a2.916,2.916,0,0,1,.023.364,1.126,1.126,0,1,0,2.252,0,3.81,3.81,0,0,0-.679-2.173,4.049,4.049,0,0,0-1.914-1.456,3.827,3.827,0,0,0-4.15,1.115,4.057,4.057,0,0,0-.934,2.282,3.762,3.762,0,0,0,.533,2.2,3.808,3.808,0,0,0,1.617,1.482,4.034,4.034,0,0,0,2.5.3,3.876,3.876,0,0,0,3.028-3.753,1.126,1.126,0,0,0-2.252,0Z" transform="translate(-629.295 -187.057)"/>
      </g>
    </g>
    <g id="Grupo_57" data-name="Grupo 57" transform="translate(0 0)">
      <g id="Grupo_56" data-name="Grupo 56" transform="translate(0 0)">
        <path id="Trazado_36" data-name="Trazado 36" d="M195.133,22.9a2.916,2.916,0,0,1-.023.364c.015-.1.026-.2.041-.3a2.873,2.873,0,0,1-.184.683l.113-.27a2.544,2.544,0,0,1-.233.435.747.747,0,0,1-.083.12s.188-.229.086-.113c-.06.068-.116.135-.18.2s-.12.113-.18.165-.18.094.094-.071c-.034.023-.068.049-.1.071a2.68,2.68,0,0,1-.458.244l.27-.113a2.873,2.873,0,0,1-.683.184c.1-.015.2-.026.3-.041a2.954,2.954,0,0,1-.728,0c.1.015.2.026.3.041a2.873,2.873,0,0,1-.683-.184l.27.113a2.542,2.542,0,0,1-.435-.233.748.748,0,0,1-.12-.083s.229.188.113.086c-.068-.06-.135-.116-.2-.18s-.113-.12-.165-.18-.094-.18.071.094c-.023-.034-.049-.068-.071-.1a2.68,2.68,0,0,1-.244-.458l.113.27a2.874,2.874,0,0,1-.184-.683c.015.1.026.2.041.3a2.954,2.954,0,0,1,0-.728c-.015.1-.026.2-.041.3a2.874,2.874,0,0,1,.184-.683l-.113.27a2.542,2.542,0,0,1,.233-.435.747.747,0,0,1,.083-.12s-.188.229-.086.113c.06-.068.116-.135.18-.2s.12-.113.18-.165.18-.094-.094.071c.034-.023.068-.049.1-.071a2.679,2.679,0,0,1,.458-.244l-.27.113a2.873,2.873,0,0,1,.683-.184c-.1.015-.2.026-.3.041a2.954,2.954,0,0,1,.728,0c-.1-.015-.2-.026-.3-.041a2.873,2.873,0,0,1,.683.184l-.27-.113a2.542,2.542,0,0,1,.435.233.748.748,0,0,1,.12.083s-.229-.188-.113-.086c.068.06.135.116.2.18s.113.12.165.18.094.18-.071-.094c.023.034.049.068.071.1a2.681,2.681,0,0,1,.244.458l-.113-.27a2.873,2.873,0,0,1,.184.683c-.015-.1-.026-.2-.041-.3a2.916,2.916,0,0,1,.023.364,1.126,1.126,0,1,0,2.252,0,3.809,3.809,0,0,0-.679-2.173,4.049,4.049,0,0,0-1.914-1.456,3.827,3.827,0,0,0-4.15,1.115,4.057,4.057,0,0,0-.934,2.282,3.761,3.761,0,0,0,.533,2.2,3.808,3.808,0,0,0,1.617,1.482,4.034,4.034,0,0,0,2.5.3,3.876,3.876,0,0,0,3.028-3.753,1.126,1.126,0,0,0-2.252,0Z" transform="translate(-189.695 -19.057)"/>
      </g>
    </g>
    <g id="Grupo_59" data-name="Grupo 59" transform="translate(0.011 29.308)">
      <g id="Grupo_58" data-name="Grupo 58" transform="translate(0 0)">
        <path id="Trazado_37" data-name="Trazado 37" d="M195.433,803.9a2.915,2.915,0,0,1-.023.364c.015-.1.026-.2.041-.3a2.875,2.875,0,0,1-.184.683l.113-.27a2.542,2.542,0,0,1-.233.435.747.747,0,0,1-.083.12s.188-.229.086-.113c-.06.068-.116.135-.18.2s-.12.113-.18.165-.18.094.094-.071c-.034.023-.068.049-.1.071a2.678,2.678,0,0,1-.458.244l.27-.113a2.874,2.874,0,0,1-.683.184c.1-.015.2-.026.3-.041a2.953,2.953,0,0,1-.728,0c.1.015.2.026.3.041a2.874,2.874,0,0,1-.683-.184l.27.113a2.544,2.544,0,0,1-.435-.233.75.75,0,0,1-.12-.083s.229.188.113.086c-.068-.06-.135-.116-.2-.18s-.113-.12-.165-.18-.094-.18.071.094c-.023-.034-.049-.068-.071-.1a2.679,2.679,0,0,1-.244-.458l.113.27a2.873,2.873,0,0,1-.184-.683c.015.1.026.2.041.3a2.952,2.952,0,0,1,0-.728c-.015.1-.026.2-.041.3a2.873,2.873,0,0,1,.184-.683l-.113.27a2.545,2.545,0,0,1,.233-.435.753.753,0,0,1,.083-.12s-.188.229-.086.113c.06-.068.116-.135.18-.2s.12-.113.18-.165.18-.094-.094.071c.034-.023.068-.049.1-.071a2.679,2.679,0,0,1,.458-.244l-.27.113a2.868,2.868,0,0,1,.683-.184c-.1.015-.2.026-.3.041a2.953,2.953,0,0,1,.728,0c-.1-.015-.2-.026-.3-.041a2.868,2.868,0,0,1,.683.184l-.27-.113a2.54,2.54,0,0,1,.435.233.746.746,0,0,1,.12.083s-.229-.188-.113-.086c.068.06.135.116.2.18s.113.12.165.18.094.18-.071-.094c.023.034.049.068.071.1a2.682,2.682,0,0,1,.244.458l-.113-.27a2.875,2.875,0,0,1,.184.683c-.015-.1-.026-.2-.041-.3a2.962,2.962,0,0,1,.023.364,1.126,1.126,0,1,0,2.252,0,3.809,3.809,0,0,0-.679-2.173,4.049,4.049,0,0,0-1.914-1.456,3.827,3.827,0,0,0-4.15,1.115,4.057,4.057,0,0,0-.934,2.282,3.761,3.761,0,0,0,.533,2.2,3.808,3.808,0,0,0,1.617,1.482,4.035,4.035,0,0,0,2.5.3,3.876,3.876,0,0,0,3.028-3.753,1.126,1.126,0,0,0-2.252,0Z" transform="translate(-189.995 -800.057)"/>
      </g>
    </g>
  </g>
</svg>
