<svg id="intagram" xmlns="http://www.w3.org/2000/svg" xmlns:xlink="http://www.w3.org/1999/xlink" width="56.004" height="55.382" viewBox="0 0 56.004 55.382">
  <defs>
    <linearGradient id="linear-gradient" x1="0.5" x2="0.5" y2="1" gradientUnits="objectBoundingBox">
      <stop offset="0" stop-color="#be26eb"/>
      <stop offset="0.782" stop-color="#a01a48"/>
      <stop offset="1" stop-color="#5f1376"/>
    </linearGradient>
  </defs>
  <path id="Trazado_38" data-name="Trazado 38" d="M6.332-3.11c4.044-4.233,12.257-3.283,19.116.9s19.094,0,19.094,0a7.4,7.4,0,0,1,7.322,7.467V23.924a7.4,7.4,0,0,1-7.322,7.467H7.322A7.4,7.4,0,0,1,0,23.924V5.256C0,1.132,2.287,1.123,6.332-3.11Z" transform="translate(2.273 21.502)" fill="url(#linear-gradient)"/>
  <g id="Rectángulo_79" data-name="Rectángulo 79" fill="none" stroke="#000" stroke-width="3">
    <rect width="56.004" height="55.382" rx="13" stroke="none"/>
    <rect x="1.5" y="1.5" width="53.004" height="52.382" rx="11.5" fill="none"/>
  </g>
  <g id="Trazado_82" data-name="Trazado 82" transform="translate(13.949 15.152)" fill="none">
    <path d="M13.56,0A13.47,13.47,0,0,1,27.12,13.379,13.47,13.47,0,0,1,13.56,26.757,13.47,13.47,0,0,1,0,13.379,13.47,13.47,0,0,1,13.56,0Z" stroke="none"/>
    <path d="M 13.56012439727783 5.000001907348633 C 8.840053558349609 5.000001907348633 4.999994277954102 8.758682250976562 4.999994277954102 13.3787317276001 C 4.999994277954102 17.99878311157227 8.840053558349609 21.75746154785156 13.56012439727783 21.75746154785156 C 18.28019332885742 21.75746154785156 22.1202449798584 17.99878311157227 22.1202449798584 13.3787317276001 C 22.1202449798584 8.758682250976562 18.28019332885742 5.000001907348633 13.56012439727783 5.000001907348633 M 13.56012439727783 1.9073486328125e-06 C 21.04917526245117 1.9073486328125e-06 27.1202449798584 5.989862442016602 27.1202449798584 13.3787317276001 C 27.1202449798584 20.76760101318359 21.04917526245117 26.75746154785156 13.56012439727783 26.75746154785156 C 6.071073532104492 26.75746154785156 -5.7220458984375e-06 20.76760101318359 -5.7220458984375e-06 13.3787317276001 C -5.7220458984375e-06 5.989862442016602 6.071073532104492 1.9073486328125e-06 13.56012439727783 1.9073486328125e-06 Z" stroke="none" fill="#000"/>
  </g>
  <circle id="Elipse_11" data-name="Elipse 11" cx="3.422" cy="3.422" r="3.422" transform="translate(41.07 8.712)"/>
</svg>
