<svg xmlns="http://www.w3.org/2000/svg" xmlns:xlink="http://www.w3.org/1999/xlink" width="90" height="89" viewBox="0 0 90 89">
  <defs>
    <linearGradient id="linear-gradient" x1="0.5" x2="0.5" y2="1" gradientUnits="objectBoundingBox">
      <stop offset="0" stop-color="#be26eb"/>
      <stop offset="0.782" stop-color="#a01a48"/>
      <stop offset="1" stop-color="#5f1376"/>
    </linearGradient>
  </defs>
  <g id="intagram" transform="translate(-1580.633 -120)">
    <path id="Trazado_38" data-name="Trazado 38" d="M10.175-1.444c6.5-6.8,19.7-5.277,30.721,1.444S71.581,0,71.581,0A11.885,11.885,0,0,1,83.347,12V42A11.885,11.885,0,0,1,71.581,54H11.767A11.885,11.885,0,0,1,0,42V12C0,5.373,3.676,5.358,10.175-1.444Z" transform="translate(1584.286 151)" fill="url(#linear-gradient)"/>
    <g id="Rectángulo_79" data-name="Rectángulo 79" transform="translate(1580.633 120)" fill="none" stroke="#000" stroke-width="5">
      <rect width="90" height="89" rx="13" stroke="none"/>
      <rect x="2.5" y="2.5" width="85" height="84" rx="10.5" fill="none"/>
    </g>
    <g id="Trazado_82" data-name="Trazado 82" transform="translate(1603.05 144.35)" fill="none">
      <path d="M21.792,0A21.647,21.647,0,0,1,43.583,21.5,21.647,21.647,0,0,1,21.792,43,21.647,21.647,0,0,1,0,21.5,21.647,21.647,0,0,1,21.792,0Z" stroke="none"/>
      <path d="M 21.79150390625 5 C 17.29363632202148 5 13.06843757629395 6.724723815917969 9.894237518310547 9.856468200683594 C 6.738136291503906 12.97033309936523 5.000003814697266 17.10542297363281 5.000003814697266 21.5 C 5.000003814697266 25.89457702636719 6.738136291503906 30.02966690063477 9.894237518310547 33.14353179931641 C 13.06843757629395 36.27527618408203 17.29363632202148 38 21.79150390625 38 C 26.28937149047852 38 30.51457023620605 36.27527618408203 33.68877029418945 33.14353179931641 C 36.84487152099609 30.02966690063477 38.58300399780273 25.89457702636719 38.58300399780273 21.5 C 38.58300399780273 17.10542297363281 36.84487152099609 12.97033309936523 33.68877029418945 9.856468200683594 C 30.51457023620605 6.724723815917969 26.28937149047852 5 21.79150390625 5 M 21.79150390625 0 C 33.82661437988281 0 43.58300399780273 9.625877380371094 43.58300399780273 21.5 C 43.58300399780273 33.37412261962891 33.82661437988281 43 21.79150390625 43 C 9.756393432617188 43 3.814697265625e-06 33.37412261962891 3.814697265625e-06 21.5 C 3.814697265625e-06 9.625877380371094 9.756393432617188 0 21.79150390625 0 Z" stroke="none" fill="#000"/>
    </g>
    <circle id="Elipse_11" data-name="Elipse 11" cx="5.5" cy="5.5" r="5.5" transform="translate(1646.633 134)"/>
  </g>
</svg>
