<svg id="linkedin" xmlns="http://www.w3.org/2000/svg" xmlns:xlink="http://www.w3.org/1999/xlink" width="56.004" height="55.382" viewBox="0 0 56.004 55.382">
  <defs>
    <linearGradient id="linear-gradient" x1="0.5" y1="-0.161" x2="0.5" y2="1" gradientUnits="objectBoundingBox">
      <stop offset="0" stop-color="#2680eb"/>
      <stop offset="1" stop-color="#b8cae0"/>
    </linearGradient>
  </defs>
  <path id="Trazado_38" data-name="Trazado 38" d="M6.332-3.11c4.044-4.233,12.257-3.283,19.116.9s19.094,0,19.094,0a7.4,7.4,0,0,1,7.322,7.467V23.924a7.4,7.4,0,0,1-7.322,7.467H7.322A7.4,7.4,0,0,1,0,23.924V5.256C0,1.132,2.287,1.123,6.332-3.11Z" transform="translate(2.273 21.502)" fill="url(#linear-gradient)"/>
  <g id="Grupo_61" data-name="Grupo 61">
    <g id="Rectángulo_79" data-name="Rectángulo 79" transform="translate(0)" fill="none" stroke="#000" stroke-width="3">
      <rect width="56.004" height="55.382" rx="13" stroke="none"/>
      <rect x="1.5" y="1.5" width="53.004" height="52.382" rx="11.5" fill="none"/>
    </g>
  </g>
  <rect id="Rectángulo_248" data-name="Rectángulo 248" width="3.789" height="18.947" transform="translate(15.853 27.82)"/>
  <rect id="Rectángulo_249" data-name="Rectángulo 249" width="3.789" height="3.789" transform="translate(15.853 21.773)"/>
  <path id="Trazado_81" data-name="Trazado 81" d="M58.743,60.7V58.357a5.146,5.146,0,0,1,10.292,0v9.357h3.743V58.357a8.893,8.893,0,0,0-14.035-7.251V49H55V67.713h3.743Z" transform="translate(-32.22 -21.063)"/>
</svg>
