<svg xmlns="http://www.w3.org/2000/svg" width="104.359" height="69.979" viewBox="0 0 104.359 69.979">
  <g id="correo" transform="translate(0.18 -16.921)">
    <path id="Trazado_89" data-name="Trazado 89" d="M101,84.9H3a1,1,0,0,1-1-1V20.1a1,1,0,0,1,1-1h98a1,1,0,0,1,1,1V83.9A1,1,0,0,1,101,84.9Zm-97-2h96V21.1H4Z" fill="#707070" stroke="#707070" stroke-width="4"/>
    <path id="Trazado_90" data-name="Trazado 90" d="M52,59.22a13.538,13.538,0,0,1-8.85-3.3L2.35,20.86a1,1,0,0,1,1.3-1.52L44.45,54.4a11.519,11.519,0,0,0,15.1,0l40.8-35.06a1,1,0,1,1,1.3,1.52L60.85,55.92A13.561,13.561,0,0,1,52,59.22Z" fill="#707070" stroke="#707070" stroke-width="4"/>
    <path id="Trazado_91" data-name="Trazado 91" d="M101,84.9a1.048,1.048,0,0,1-.65-.23L62.89,53.05a1,1,0,1,1,1.168-1.623.924.924,0,0,1,.122.1l37.46,31.61A1,1,0,0,1,101,84.9Z" fill="#707070" stroke="#707070" stroke-width="4"/>
    <path id="Trazado_92" data-name="Trazado 92" d="M3,84.9a1,1,0,0,1-.64-1.76L39.82,51.53a1,1,0,0,1,1.412,1.417,1.089,1.089,0,0,1-.122.1L3.65,84.67A1.048,1.048,0,0,1,3,84.9Z" fill="#707070" stroke="#707070" stroke-width="4"/>
  </g>
</svg>
