<svg xmlns="http://www.w3.org/2000/svg" width="22.217" height="14.619" viewBox="0 0 22.217 14.619">
  <g id="correo" transform="translate(-2 -19.1)">
    <path id="Trazado_89" data-name="Trazado 89" d="M23.994,33.718H2.222A.222.222,0,0,1,2,33.5V19.322a.222.222,0,0,1,.222-.222H23.994a.222.222,0,0,1,.222.222V33.5A.222.222,0,0,1,23.994,33.718Zm-21.55-.444H23.772V19.544H2.444Z" transform="translate(0 0)" fill="#707070"/>
    <path id="Trazado_90" data-name="Trazado 90" d="M13.108,28.013a3.008,3.008,0,0,1-1.966-.733L2.078,19.491a.222.222,0,1,1,.289-.338l9.064,7.789a2.559,2.559,0,0,0,3.355,0l9.064-7.789a.222.222,0,1,1,.289.338L15.074,27.28A3.013,3.013,0,0,1,13.108,28.013Z" transform="translate(0)" fill="#707070"/>
    <path id="Trazado_91" data-name="Trazado 91" d="M71.033,58.717a.233.233,0,0,1-.144-.051l-8.322-7.025a.222.222,0,1,1,.259-.361.206.206,0,0,1,.027.023l8.322,7.023a.222.222,0,0,1-.142.391Z" transform="translate(-47.039 -24.998)" fill="#707070"/>
    <path id="Trazado_92" data-name="Trazado 92" d="M2.23,58.717a.222.222,0,0,1-.142-.391L10.41,51.3a.222.222,0,0,1,.314.315.242.242,0,0,1-.027.023L2.374,58.666A.233.233,0,0,1,2.23,58.717Z" transform="translate(-0.008 -24.998)" fill="#707070"/>
  </g>
</svg>
