<svg xmlns="http://www.w3.org/2000/svg" xmlns:xlink="http://www.w3.org/1999/xlink" width="36.535" height="36.549" viewBox="0 0 36.535 36.549">
  <defs>
    <filter id="Trazado_28" x="0" y="0" width="36.535" height="36.549" filterUnits="userSpaceOnUse">
      <feOffset dy="3" input="SourceAlpha"/>
      <feGaussianBlur stdDeviation="3" result="blur"/>
      <feFlood flood-opacity="0.161"/>
      <feComposite operator="in" in2="blur"/>
      <feComposite in="SourceGraphic"/>
    </filter>
  </defs>
  <g id="Grupo_64" data-name="Grupo 64" transform="translate(-1660.5 -538.621)">
    <g transform="matrix(1, 0, 0, 1, 1660.5, 538.62)" filter="url(#Trazado_28)">
      <path id="Trazado_28-2" data-name="Trazado 28" d="M22.261,21.786a1.815,1.815,0,0,0,0-2.684L20.1,16.939a1.807,1.807,0,0,0-1.332-.6,1.877,1.877,0,0,0-1.332.6l-1.248,1.248c-.1-.062-.208-.1-.312-.166-.146-.062-.27-.146-.4-.208a13.233,13.233,0,0,1-3.225-2.934,7.152,7.152,0,0,1-1.061-1.685c.312-.291.624-.6.915-.895l.333-.333a1.948,1.948,0,0,0,.624-1.352,1.9,1.9,0,0,0-.624-1.352L11.38,8.18c-.125-.125-.25-.25-.354-.374-.229-.25-.479-.5-.728-.728a1.854,1.854,0,0,0-1.311-.583,1.938,1.938,0,0,0-1.332.583L6.3,8.429a2.849,2.849,0,0,0-.853,1.81,7.254,7.254,0,0,0,.5,2.913,16.839,16.839,0,0,0,3,5.014,18.528,18.528,0,0,0,6.138,4.806,9.263,9.263,0,0,0,3.454,1.019h.25a2.93,2.93,0,0,0,2.247-.978l.021-.021a7.31,7.31,0,0,1,.687-.707A3.908,3.908,0,0,0,22.261,21.786Zm-1.228-.229a9.049,9.049,0,0,0-.749.791,1.864,1.864,0,0,1-1.477.624H18.62a9.238,9.238,0,0,1-3.079-.936A17.452,17.452,0,0,1,9.757,17.5a16.164,16.164,0,0,1-2.83-4.7,5.431,5.431,0,0,1-.437-2.455,1.9,1.9,0,0,1,.541-1.165L8.363,7.847a.872.872,0,0,1,.6-.291.88.88,0,0,1,.6.291c.25.229.458.458.707.707l.374.374L11.713,9.99a.9.9,0,0,1,.312.624.9.9,0,0,1-.312.624l-.333.333c-.333.333-.645.645-.978.957l-.021.021a.8.8,0,0,0-.208.874c0,.021,0,.021.021.042a8.136,8.136,0,0,0,1.269,2.06,14.443,14.443,0,0,0,3.474,3.162c.166.1.333.187.479.27.146.062.27.146.4.208.021,0,.021.021.042.021a.848.848,0,0,0,.374.1.837.837,0,0,0,.583-.27l1.352-1.352a.749.749,0,0,1,1.186,0l2.164,2.164a.8.8,0,0,1-.021,1.248A4.861,4.861,0,0,1,21.033,21.558ZM15.042,9.22a.5.5,0,0,1,.6-.416,5.873,5.873,0,0,1,3.266,1.706,6.3,6.3,0,0,1,1.706,3.266.524.524,0,0,1-.416.6h-.083a.534.534,0,0,1-.52-.437,4.891,4.891,0,0,0-1.415-2.7,5.1,5.1,0,0,0-2.7-1.415A.5.5,0,0,1,15.042,9.22ZM22.948,13.8a9.026,9.026,0,0,0-2.5-4.827,8.886,8.886,0,0,0-4.827-2.5.5.5,0,0,1-.416-.6.5.5,0,0,1,.6-.416,9.962,9.962,0,0,1,8.156,8.156.524.524,0,0,1-.416.6h-.083A.5.5,0,0,1,22.948,13.8Z" transform="translate(3.56 0.56)" fill="#707070"/>
    </g>
  </g>
</svg>
