<svg xmlns="http://www.w3.org/2000/svg" xmlns:xlink="http://www.w3.org/1999/xlink" width="112.686" height="112.758" viewBox="0 0 112.686 112.758">
  <defs>
    <filter id="Trazado_28" x="0" y="0" width="112.686" height="112.758" filterUnits="userSpaceOnUse">
      <feOffset dy="3" input="SourceAlpha"/>
      <feGaussianBlur stdDeviation="3" result="blur"/>
      <feFlood flood-opacity="0.161"/>
      <feComposite operator="in" in2="blur"/>
      <feComposite in="SourceGraphic"/>
    </filter>
  </defs>
  <g transform="matrix(1, 0, 0, 1, 0, 0)" filter="url(#Trazado_28)">
    <path id="Trazado_28-2" data-name="Trazado 28" d="M91.379,88.934c4.039-4.145,4.039-9.672,0-13.71L80.326,64.171a9.23,9.23,0,0,0-6.8-3.082,9.587,9.587,0,0,0-6.8,3.082l-6.377,6.377c-.531-.319-1.063-.531-1.594-.85-.744-.319-1.382-.744-2.019-1.063A67.6,67.6,0,0,1,40.258,53.649a36.534,36.534,0,0,1-5.42-8.609c1.594-1.488,3.188-3.082,4.676-4.57l1.7-1.7A9.951,9.951,0,0,0,44.4,31.861a9.708,9.708,0,0,0-3.188-6.908l-5.42-5.527c-.638-.638-1.275-1.275-1.807-1.913-1.169-1.275-2.444-2.551-3.72-3.72a9.473,9.473,0,0,0-6.7-2.976,9.9,9.9,0,0,0-6.8,2.976L9.861,20.7A14.553,14.553,0,0,0,5.5,29.948c-.425,5.845,1.275,11.266,2.551,14.879,3.188,8.715,8.077,16.9,15.3,25.614A94.649,94.649,0,0,0,54.712,94.992c4.57,2.232,10.734,4.783,17.643,5.208H73.63a14.968,14.968,0,0,0,11.478-5l.106-.106a37.347,37.347,0,0,1,3.507-3.614A19.965,19.965,0,0,0,91.379,88.934Zm-6.271-1.169A46.224,46.224,0,0,0,81.282,91.8a9.52,9.52,0,0,1-7.546,3.188H72.78c-5.952-.531-11.478-2.763-15.73-4.783A89.15,89.15,0,0,1,27.5,67.04C20.7,58.857,16.132,51.2,13.05,43.021c-1.913-5-2.551-8.928-2.232-12.541a9.717,9.717,0,0,1,2.763-5.952l6.8-6.8a4.453,4.453,0,0,1,3.082-1.488,4.5,4.5,0,0,1,3.082,1.488c1.275,1.169,2.338,2.338,3.614,3.614l1.913,1.913,5.42,5.42a4.593,4.593,0,0,1,1.594,3.188,4.593,4.593,0,0,1-1.594,3.188l-1.7,1.7c-1.7,1.7-3.295,3.295-5,4.889l-.106.106a4.1,4.1,0,0,0-1.063,4.464c0,.106,0,.106.106.213a41.563,41.563,0,0,0,6.483,10.522A73.78,73.78,0,0,0,53.968,73.1c.85.531,1.7.957,2.444,1.382.744.319,1.382.744,2.019,1.063.106,0,.106.106.213.106a4.331,4.331,0,0,0,1.913.531A4.278,4.278,0,0,0,63.533,74.8l6.908-6.908A4.727,4.727,0,0,1,73.524,66.4,4.71,4.71,0,0,1,76.5,67.891L87.553,78.944c2.551,2.551,1.382,4.889-.106,6.377A24.836,24.836,0,0,1,85.108,87.765ZM54.5,24.741a2.528,2.528,0,0,1,3.082-2.126A30,30,0,0,1,74.268,31.33a32.181,32.181,0,0,1,8.715,16.686A2.675,2.675,0,0,1,80.857,51.1h-.425a2.729,2.729,0,0,1-2.657-2.232A24.986,24.986,0,0,0,70.548,35.05a26.056,26.056,0,0,0-13.817-7.227A2.531,2.531,0,0,1,54.5,24.741ZM94.886,48.122A46.111,46.111,0,0,0,82.133,23.465,45.4,45.4,0,0,0,57.475,10.711,2.528,2.528,0,0,1,55.35,7.629,2.575,2.575,0,0,1,58.432,5.5a50.889,50.889,0,0,1,41.662,41.662,2.675,2.675,0,0,1-2.126,3.082h-.425A2.541,2.541,0,0,1,94.886,48.122Z" transform="translate(3.56 0.56)" fill="#707070"/>
  </g>
</svg>
