<svg xmlns="http://www.w3.org/2000/svg" xmlns:xlink="http://www.w3.org/1999/xlink" width="339.711" height="160.321" viewBox="0 0 339.711 160.321">
  <defs>
    <style>
      .cls-1 {
        fill: #1a2220;
        stroke: #fff;
        stroke-width: 2px;
      }

      .cls-2, .cls-4 {
        fill: #fff;
      }

      .cls-2 {
        font-size: 62px;
        font-family: Saudagar;
      }

      .cls-3 {
        fill: #ff5d59;
      }

      .cls-5, .cls-7 {
        stroke: none;
      }

      .cls-6 {
        fill: none;
      }

      .cls-7 {
        fill: #fff;
      }

      .cls-8 {
        filter: url(#Rect치ngulo_65);
      }
    </style>
    <filter id="Rect치ngulo_65" x="0" y="40.514" width="339.711" height="119.807" filterUnits="userSpaceOnUse">
      <feOffset dy="3" input="SourceAlpha"/>
      <feGaussianBlur stdDeviation="3" result="blur"/>
      <feFlood flood-opacity="0.161"/>
      <feComposite operator="in" in2="blur"/>
      <feComposite in="SourceGraphic"/>
    </filter>
  </defs>
  <g id="Grupo_70" data-name="Grupo 70" transform="translate(-1422.136 -678.486)">
    <g class="cls-8" transform="matrix(1, 0, 0, 1, 1422.14, 678.49)">
      <g id="Rect치ngulo_65-2" data-name="Rect치ngulo 65" class="cls-1" transform="translate(9 46.51)">
        <rect class="cls-5" width="321.711" height="101.807" rx="9"/>
        <rect class="cls-6" x="1" y="1" width="319.711" height="99.807" rx="8"/>
      </g>
    </g>
    <text id="Madrid" class="cls-2" transform="translate(1506.136 736)"><tspan x="0" y="59">Madrid</tspan></text>
    <g id="ICONO1" transform="translate(1568.088 678.486)">
      <g id="Trazado_18" data-name="Trazado 18" class="cls-3">
        <path class="cls-5" d="M 24.21173667907715 61.86320114135742 C 22.04459190368652 59.23697662353516 17.86451530456543 54.03150177001953 13.72722434997559 48.10204696655273 C 10.27099514007568 43.14866638183594 7.52326488494873 38.67124557495117 5.560374736785889 34.79414367675781 C 3.197884798049927 30.12777519226074 2.000004768371582 26.40761566162109 2.000004768371582 23.73699569702148 C 2.000004768371582 20.80658531188965 2.585114717483521 17.96451568603516 3.73907470703125 15.28974533081055 C 4.855244636535645 12.70257568359375 6.454224586486816 10.37798500061035 8.491594314575195 8.380555152893066 C 10.53172492980957 6.380425453186035 12.90770435333252 4.809985637664795 15.5535249710083 3.712835311889648 C 18.29437446594238 2.576285362243652 21.2074146270752 2.000005483627319 24.21173477172852 2.000005483627319 C 27.21605491638184 2.000005483627319 30.12909507751465 2.576285362243652 32.86994552612305 3.712835311889648 C 35.51577377319336 4.809985637664795 37.89174652099609 6.380425453186035 39.9318733215332 8.380555152893066 C 41.96925354003906 10.37798500061035 43.56823348999023 12.70257568359375 44.68440628051758 15.28974533081055 C 45.83836364746094 17.96451568603516 46.4234733581543 20.80658531188965 46.4234733581543 23.73699569702148 C 46.4234733581543 26.40761566162109 45.22559356689453 30.12777519226074 42.86310577392578 34.79414367675781 C 40.90020370483398 38.67124557495117 38.15248489379883 43.14866638183594 34.69624328613281 48.10204696655273 C 30.5589542388916 54.03150177001953 26.37887763977051 59.23697662353516 24.21173667907715 61.86320114135742 Z"/>
        <path class="cls-7" d="M 24.21173477172852 4 C 18.79805183410645 4 13.71244049072266 6.062908172607422 9.891735076904297 9.808696746826172 C 6.092380523681641 13.53354263305664 3.999992370605469 18.48003768920898 3.999992370605469 23.73698806762695 C 3.999992370605469 25.35353088378906 4.579113006591797 28.4250373840332 7.338039398193359 33.8775634765625 C 9.255603790283203 37.66730499267578 11.95083999633789 42.05913162231445 15.34889984130859 46.93104553222656 C 18.61932754516602 51.62000274658203 21.92010307312012 55.85552597045898 24.21205711364746 58.69879150390625 C 26.49320220947266 55.86914825439453 29.77463150024414 51.65859222412109 33.03762817382812 46.98397827148438 C 36.44509887695312 42.10240173339844 39.14828872680664 37.70162200927734 41.07209777832031 33.90389633178711 C 43.8420295715332 28.43584823608398 44.42346572875977 25.35697937011719 44.42346572875977 23.73698806762695 C 44.42346572875977 18.48003768920898 42.33107757568359 13.53354263305664 38.53173446655273 9.808696746826172 C 34.71101760864258 6.062908172607422 29.62541770935059 4 24.21173477172852 4 M 24.21173477172852 0 C 37.58351135253906 0 48.42346572875977 10.62741470336914 48.42346572875977 23.73698806762695 C 48.42346572875977 36.84658050537109 24.21173477172852 64.97779083251953 24.21173477172852 64.97779083251953 C 24.21173477172852 64.97779083251953 -7.62939453125e-06 36.84658050537109 -7.62939453125e-06 23.73698806762695 C -7.62939453125e-06 10.62741470336914 10.83995819091797 0 24.21173477172852 0 Z"/>
      </g>
      <circle id="Elipse_1" data-name="Elipse 1" class="cls-4" cx="5.43" cy="5.43" r="5.43" transform="translate(19.004 16.289)"/>
    </g>
  </g>
</svg>
