<svg xmlns="http://www.w3.org/2000/svg" xmlns:xlink="http://www.w3.org/1999/xlink" width="1586.722" height="916.649" viewBox="0 0 1586.722 916.649">
  <defs>
    <style>
      .cls-1 {
        fill: url(#linear-gradient);
      }
    </style>
    <linearGradient id="linear-gradient" y1="0.5" x2="1" y2="0.5" gradientUnits="objectBoundingBox">
      <stop offset="0" stop-color="#ff7bac"/>
      <stop offset="0.38" stop-color="#757bac" stop-opacity="0.961"/>
      <stop offset="0.64" stop-color="#b38385" stop-opacity="0.529"/>
      <stop offset="0.88" stop-color="#ea8a62" stop-opacity="0.149"/>
      <stop offset="1" stop-color="#ff8d55" stop-opacity="0"/>
    </linearGradient>
  </defs>
  <g id="Grupo_74" data-name="Grupo 74" transform="translate(-153.097 -298.807)">
    <path id="Trazado_73" data-name="Trazado 73" class="cls-1" d="M946.456,1215.456A781.931,781.931,0,0,1,639.078,1152.9,802.382,802.382,0,0,1,216.821,732.235,781.939,781.939,0,0,1,153.1,425.1a123.288,123.288,0,0,1,122.82-123.752c.158,0,.318,0,.477,0A123.286,123.286,0,0,1,399.671,424.163,536.7,536.7,0,0,0,443.4,634.974,555.826,555.826,0,0,0,735.48,925.949a539.809,539.809,0,0,0,422.435-.211A555.911,555.911,0,0,0,1450.1,633.553a536.613,536.613,0,0,0,43.144-211.459,123.287,123.287,0,1,1,246.574,0,781.807,781.807,0,0,1-62.87,308.1,802.474,802.474,0,0,1-422.4,422.4A781.845,781.845,0,0,1,946.456,1215.456Z" transform="translate(0 0)"/>
  </g>
</svg>
